<?xml version="1.0" standalone="no"?><!-- Generator: Gravit.io --><svg xmlns="http://www.w3.org/2000/svg" xmlns:xlink="http://www.w3.org/1999/xlink" style="isolation:isolate" viewBox="0 0 500 200" width="500" height="200"><defs><clipPath id="_clipPath_0NydKnMuduMSKQ4v5ULiWGFA1f7exWvH"><rect width="500" height="200"/></clipPath></defs><g clip-path="url(#_clipPath_0NydKnMuduMSKQ4v5ULiWGFA1f7exWvH)"><path d=" M 30 46.678 L 35.69 31.853 L 100.881 31.853 L 95.191 46.678 L 71.943 46.678 L 71.943 153.322 L 100.881 153.322 L 95.191 168.147 L 30 168.147 L 35.69 153.322 L 58.938 153.322 L 58.938 46.678 L 30 46.678 Z  M 141.28 163.514 L 128.275 170 L 128.275 101.066 L 128.275 101.066 Q 128.275 86.612 137.216 76.42 L 137.216 76.42 L 137.216 76.42 Q 146.157 66.228 158.838 66.228 L 158.838 66.228 L 158.838 66.228 Q 171.519 66.228 180.541 76.42 L 180.541 76.42 L 180.541 76.42 Q 189.564 86.612 189.564 101.066 L 189.564 101.066 L 189.564 163.514 L 176.558 170 L 176.558 101.343 L 176.558 101.343 Q 176.396 92.727 171.356 87.075 L 171.356 87.075 L 171.356 87.075 Q 166.154 81.238 159.082 81.238 L 159.082 81.238 L 159.082 81.238 Q 151.766 81.238 146.483 87.167 L 146.483 87.167 L 146.483 87.167 Q 141.28 92.912 141.28 101.066 L 141.28 101.066 L 141.28 101.066 Q 141.28 101.251 141.28 101.343 L 141.28 101.343 L 141.28 163.514 Z  M 234.759 163.514 L 221.753 170 L 221.753 36.486 L 234.759 30 L 234.759 105.976 L 270.687 66.228 L 283.043 72.713 L 258.169 100.788 L 258.169 100.788 Q 267.842 102.826 274.02 109.96 L 274.02 109.96 L 274.02 109.96 Q 283.043 120.152 283.043 134.606 L 283.043 134.606 L 283.043 163.514 L 270.037 170 L 270.037 134.884 L 270.037 134.884 Q 269.874 126.36 264.835 120.615 L 264.835 120.615 L 264.835 120.615 Q 259.795 114.871 252.317 114.778 L 252.317 114.778 L 252.317 114.778 Q 245.163 114.778 239.88 120.615 L 239.88 120.615 L 239.88 120.615 Q 234.759 126.267 234.759 134.328 L 234.759 134.328 L 234.759 134.884 L 234.759 163.514 Z  M 346.283 154.99 L 346.283 154.99 L 346.283 154.99 Q 353.111 154.99 358.313 149.153 L 358.313 149.153 L 358.313 149.153 Q 363.353 143.501 363.516 134.884 L 363.516 134.884 L 363.516 133.587 L 376.521 127.009 L 376.521 135.162 L 376.521 135.162 Q 376.521 148.134 366.767 159.993 L 366.767 159.993 L 366.767 159.993 Q 358.476 170 345.795 170 L 345.795 170 L 345.795 170 Q 333.115 170 324.173 159.808 L 324.173 159.808 L 324.173 159.808 Q 315.232 149.616 315.232 135.162 L 315.232 135.162 L 315.232 101.066 L 315.232 101.066 Q 315.232 86.612 324.173 76.42 L 324.173 76.42 L 324.173 76.42 Q 333.115 66.228 345.795 66.228 L 345.795 66.228 L 345.795 66.228 Q 357.988 66.228 367.499 76.42 L 367.499 76.42 L 367.499 76.42 Q 376.521 86.056 376.521 101.066 L 376.521 101.066 L 376.521 109.775 L 328.238 134.236 L 328.238 134.236 Q 328.238 143.038 333.359 149.014 L 333.359 149.014 L 333.359 149.014 Q 338.48 154.99 346.283 154.99 Z  M 345.308 81.238 L 345.308 81.238 L 345.308 81.238 Q 338.48 81.238 333.359 87.075 L 333.359 87.075 L 333.359 87.075 Q 328.238 92.912 328.238 101.066 L 328.238 101.066 L 328.238 101.066 Q 328.238 101.251 328.238 101.343 L 328.238 101.343 L 328.238 118.021 L 363.434 100.139 L 363.434 100.139 Q 363.028 92.356 358.313 87.075 L 358.313 87.075 L 358.313 87.075 Q 353.111 81.238 345.308 81.238 Z  M 421.716 163.514 L 408.711 170 L 408.711 101.066 L 408.711 101.066 Q 408.711 86.612 417.652 76.42 L 417.652 76.42 L 417.652 76.42 Q 426.593 66.228 439.274 66.228 L 439.274 66.228 L 439.274 66.228 Q 452.198 66.228 460.977 76.42 L 460.977 76.42 L 460.977 76.42 Q 470 86.982 470 101.066 L 470 101.066 L 470 101.436 L 456.994 107.922 L 456.994 101.343 L 456.994 101.343 Q 456.832 92.727 451.792 87.075 L 451.792 87.075 L 451.792 87.075 Q 446.59 81.238 439.518 81.238 L 439.518 81.238 L 439.518 81.238 Q 432.121 81.238 426.919 87.075 L 426.919 87.075 L 426.919 87.075 Q 421.716 92.912 421.716 101.066 L 421.716 101.066 L 421.716 101.066 Q 421.716 101.251 421.716 101.343 L 421.716 101.343 L 421.716 163.514 Z " fill-rule="evenodd" fill="rgb(95,189,180)"/></g></svg>